<svg width="18" height="19" viewBox="0 0 18 19" fill="none" xmlns="http://www.w3.org/2000/svg">
<path fill-rule="evenodd" clip-rule="evenodd" d="M17.0303 1.46969C17.2341 1.67342 17.3031 1.97584 17.2079 2.24778L11.9579 17.2478C11.8563 17.538 11.5878 17.7369 11.2806 17.7494C10.9733 17.7619 10.6895 17.5856 10.5646 17.3046L7.6818 10.8182L1.1954 7.93538C0.91439 7.81049 0.738092 7.52671 0.750627 7.21945C0.763163 6.91219 0.961991 6.64371 1.25224 6.54213L16.2522 1.29213C16.5242 1.19695 16.8266 1.26596 17.0303 1.46969ZM9.14456 10.4161L11.1671 14.9667L14.7064 4.85429L9.14456 10.4161ZM13.6457 3.79362L3.53331 7.33297L8.0839 9.35546L13.6457 3.79362Z" fill="#949494"/>
</svg>
